<?xml version="1.0" encoding="utf-8"?>
<!-- Generator: Adobe Illustrator 16.0.4, SVG Export Plug-In . SVG Version: 6.00 Build 0)  -->
<!DOCTYPE svg PUBLIC "-//W3C//DTD SVG 1.1//EN" "http://www.w3.org/Graphics/SVG/1.1/DTD/svg11.dtd">
<svg version="1.1" id="Layer_1" xmlns="http://www.w3.org/2000/svg" xmlns:xlink="http://www.w3.org/1999/xlink" x="0px" y="0px"
	 width="1024px" height="512px" viewBox="0 0 1024 512" enable-background="new 0 0 1024 512" xml:space="preserve">
<circle fill="#FFFFFF" cx="621.324" cy="144.057" r="11.238"/>
<path fill="#FFFFFF" d="M698.964,144.057c0,6.207-4.031,11.238-10.237,11.238c-6.207,0-12.238-5.031-12.238-11.238
	c0-6.206,5.031-11.237,11.238-11.237C693.933,132.819,698.964,137.851,698.964,144.057z"/>
<path fill="#FFFFFF" d="M493.202,177.321c-20.341,0-36.952,7.458-48.817,20.34v-17.967h-0.05
	c-0.505-5.805-5.37-10.361-11.307-10.361c-5.936,0-10.801,4.556-11.306,10.361h-0.05v130.517H308.791
	c-26.442,0-47.8-20.34-52.546-45.088H360.25l18.979-0.045c3.763,0,6.812-3.05,6.812-6.812l0.042-3.651
	c0-42.375-34.917-77.293-77.293-77.293s-77.293,34.917-77.293,77.293c0,41.698,34.917,77.972,77.293,77.972h122.752
	c7.019,0,12.709-5.689,12.709-12.709l0.03-7.21l0.103-63.138c0-33.562,18.645-50.512,48.817-49.833
	c24.747,0,38.307,14.577,38.307,44.07v85.09h0.017c0.178,6.117,5.181,11.024,11.34,11.024c6.16,0,11.163-4.907,11.341-11.024h0.017
	v-85.09C554.223,196.306,535.916,177.321,493.202,177.321z M308.791,199.696c26.104,0,47.46,18.984,52.546,43.731H256.245
	C261.33,218.68,282.348,199.696,308.791,199.696z"/>
<path fill="#FFFFFF" d="M222.513,190.034c0-5.48-4.267-9.953-9.658-10.306v-0.034h-33.562v-58.647h-0.008
	c0.001-0.051,0.008-0.1,0.008-0.15c0-6.363-5.158-11.521-11.521-11.521c-0.091,0-0.181,0.001-0.271,0.003h-36.062l0,0.021
	c-0.156-0.007-0.31-0.023-0.468-0.023c-5.834,0-10.562,4.729-10.562,10.562s4.729,10.562,10.562,10.562h0.001l-0.001,0.062
	l25.611,0.027v49.104h-22.375v0.065c-5.176,0.565-9.205,4.948-9.205,10.274c0,5.326,4.029,9.708,9.205,10.274v0.065h22.375v128.483
	h0.034c0.347,5.961,5.275,10.69,11.323,10.69c6.047,0,10.976-4.729,11.323-10.69h0.034V200.374h33.562v-0.035
	C218.246,199.986,222.513,195.514,222.513,190.034z"/>
<path fill="#FFFFFF" d="M633.546,328.856V179.694h-23.729v149.162c0.678,26.781-12.204,46.782-35.257,46.782v0.008
	c-6.088,0.083-11,5.038-11,11.146c0,6.16,4.994,11.154,11.153,11.154c0.062,0,0.122-0.009,0.185-0.01l0.001,0.077
	C613.206,398.014,634.225,371.571,633.546,328.856z"/>
<path fill="#FFFFFF" d="M818.64,177.321c-20.341,0-36.952,7.458-48.817,20.34v-17.967h-0.025
	c-0.261-6.041-5.226-10.861-11.331-10.861s-11.07,4.821-11.331,10.861h-0.025c0,0,0,111.812,0,149.162c0,12.985,0.891,36-23.11,36
	c-25.999,0-24.688-22.61-24.688-36c0-36.856,0-149.162,0-149.162h-23.73v149.162c0,0-4.746,60.644,47.419,60.644
	c49.25,0,46.822-60.644,46.822-60.644v-79.327c0-33.562,18.646-50.512,48.817-49.833c24.747,0,38.307,14.577,38.307,44.07v85.09
	h22.714v-85.09C879.66,196.306,861.354,177.321,818.64,177.321z"/>
<circle fill="#FFFFFF" cx="868.303" cy="329.021" r="11.357"/>
<circle fill="#FFFFFF" cx="621.681" cy="180.365" r="11.865"/>
<circle fill="#FFFFFF" cx="687.405" cy="179.852" r="11.886"/>
</svg>
