<?xml version="1.0" encoding="utf-8"?>
<!-- Generator: Adobe Illustrator 16.0.4, SVG Export Plug-In . SVG Version: 6.00 Build 0)  -->
<!DOCTYPE svg PUBLIC "-//W3C//DTD SVG 1.1//EN" "http://www.w3.org/Graphics/SVG/1.1/DTD/svg11.dtd">
<svg version="1.1" id="Layer_1" xmlns="http://www.w3.org/2000/svg" xmlns:xlink="http://www.w3.org/1999/xlink" x="0px" y="0px"
	 width="1024px" height="512px" viewBox="0 0 1024 512" enable-background="new 0 0 1024 512" xml:space="preserve">
<g>
	<path fill="#FFFFFF" d="M633.546,179.694h-23.729v149.162c0.678,26.781-12.204,46.782-35.257,46.782l0.339,22.375
		c38.308,0,59.326-26.442,58.647-69.157V179.694z"/>
	<g>
		<path fill="#FFFFFF" d="M769.822,328.856v-79.327c0-33.562,18.646-50.512,48.817-49.833c24.747,0,38.307,14.577,38.307,44.07
			v85.09h22.714v-85.09c0-47.46-18.307-66.445-61.021-66.445c-20.341,0-36.952,7.458-48.817,20.34v-17.967h-22.713
			c0,0,0,111.812,0,149.162c0,12.985,0.891,36-23.11,36c-25.999,0-24.688-22.61-24.688-36c0-36.856,0-149.162,0-149.162h-23.73
			v149.162c0,0-4.746,60.644,47.419,60.644C777.614,389.5,769.822,328.856,769.822,328.856z"/>
	</g>
</g>
<circle fill="#FFFFFF" cx="621.324" cy="149.834" r="11.238"/>
<path fill="#FFFFFF" d="M699.562,149.834c0,6.207-4.031,11.238-10.237,11.238c-6.207,0-12.238-5.031-12.238-11.238
	c0-6.206,5.031-11.237,11.238-11.237C694.53,138.597,699.562,143.628,699.562,149.834z"/>
<path fill="#FFFFFF" d="M179.293,179.694v-58.647h-0.008c0.001-0.051,0.008-0.1,0.008-0.15c0-6.363-5.158-11.521-11.521-11.521
	c-0.091,0-0.181,0.001-0.271,0.003h-36.062l0,0.021c-0.156-0.007-0.31-0.023-0.468-0.023c-5.834,0-10.562,4.729-10.562,10.562
	s4.729,10.562,10.562,10.562h0.001l-0.001,0.062l25.611,0.027v49.104h-22.375v20.679h22.375v128.483h22.713V200.374h33.562v-20.679
	H179.293z"/>
<path fill="#FFFFFF" d="M444.282,312.667l0.103-63.138c0-33.562,18.645-50.512,48.817-49.833c24.747,0,38.307,14.577,38.307,44.07
	v85.09h22.714v-85.09c0-47.46-18.307-66.445-61.021-66.445c-20.341,0-36.952,7.458-48.817,20.34v-17.967h-22.713v130.517H308.791
	c-26.442,0-47.8-20.34-52.546-45.088h129.839v-10.509c0-42.375-34.917-77.293-77.293-77.293s-77.293,34.917-77.293,77.293
	c0,41.698,34.917,77.972,77.293,77.972h122.752c7.019,0,12.709-5.689,12.709-12.709 M308.791,199.696
	c26.104,0,47.46,18.984,52.546,43.731H256.245C261.33,218.68,282.348,199.696,308.791,199.696z"/>
</svg>
